<?xml version="1.0" standalone="no"?><!-- Generator: Gravit.io --><svg xmlns="http://www.w3.org/2000/svg" xmlns:xlink="http://www.w3.org/1999/xlink" style="isolation:isolate" viewBox="0 0 128 128" width="128" height="128"><defs><clipPath id="_clipPath_yMLrPLr8SzlrylI1jAQYI34gSiN3Vzbz"><rect width="128" height="128"/></clipPath></defs><g clip-path="url(#_clipPath_yMLrPLr8SzlrylI1jAQYI34gSiN3Vzbz)"><path d="M 16 8 L 112 8 C 116.415 8 120 11.585 120 16 L 120 112 C 120 116.415 116.415 120 112 120 L 16 120 C 11.585 120 8 116.415 8 112 L 8 16 C 8 11.585 11.585 8 16 8 Z" style="stroke:none;fill:#6C0C79;stroke-miterlimit:10;"/><path d=" M 81.438 33 L 54.313 48.655 L 54.313 79.345 L 81.438 95 L 108.562 79.345 L 108.562 48.655 M 81.438 41.951 L 96.163 50.438 L 81.438 58.924 L 66.751 50.438 M 19.438 44.625 L 19.438 52.375 L 46.563 52.375 L 46.563 44.625 M 62.063 56.676 L 77.563 65.628 L 77.563 83.801 L 62.063 74.889 M 100.812 56.676 L 100.812 74.889 L 85.313 83.801 L 85.313 65.628 M 27.188 60.125 L 27.188 67.875 L 46.563 67.875 L 46.563 60.125 M 34.938 75.625 L 34.938 83.375 L 46.563 83.375 L 46.563 75.625" fill="rgb(255,255,255)"/></g></svg>